# xmcd
#
# Track frame offsets: 
#        182
#        20137
#        37370
#        50982
#        62050
#        75900
#        94150
#        109235
#        122395
#        131795
#
# Disc length: 2234 seconds
#
# Revision: 11
# Processed by: cddbd v1.5.2PL0 Copyright (c) Steve Scherf et al.
# Submitted via: ExactAudioCopy v0.95b3
#
DISCID=8e08b80a
DTITLE=Carl Perkins, Jerry Lee Lewis, Roy Orbison, Johnny Cash - Class
DTITLE=Of '55 - Memphis Rock and Roll Homecoming
DYEAR=1986
DGENRE=Rockabilly
TTITLE0=Birth Of Rock And Roll
TTITLE1=Sixteen Candles
TTITLE2=Class Of '55
TTITLE3=Waymore's Blues
TTITLE4=We Remember The King
TTITLE5=Coming Home
TTITLE6=Rock And Roll  (Fais Do-Do)
TTITLE7=Keep My Motor Running
TTITLE8=I Will Rock And Roll With You
TTITLE9=Big Train  (From Memphis)
EXTD=(p)1986 Polygram Records/ Mercury Nashville USA\nsame as US-Versi
EXTD=on with upc 042283000223(c)1995 Karussell Limited Germany/Spectru
EXTD=m Music\nProduced by Chips Moman\nupc 731455083828\n YEAR: 1995
EXTT0=
EXTT1=
EXTT2=
EXTT3=
EXTT4=
EXTT5=
EXTT6=
EXTT7=
EXTT8=
EXTT9=
PLAYORDER=
